<svg xmlns="http://www.w3.org/2000/svg" xmlns:xlink="http://www.w3.org/1999/xlink" width="500" zoomAndPan="magnify" viewBox="0 0 375 374.999991" height="500" preserveAspectRatio="xMidYMid meet" version="1.0"><defs><g/><clipPath id="88a7a07707"><path d="M 236.625 220.824219 L 294.605469 220.824219 L 294.605469 257 L 236.625 257 Z M 236.625 220.824219 " clip-rule="nonzero"/></clipPath><clipPath id="261683d818"><path d="M 247 261 L 285 261 L 285 261.996094 L 247 261.996094 Z M 247 261 " clip-rule="nonzero"/></clipPath><clipPath id="0b8837f9e1"><path d="M 206.710938 68.515625 L 289 68.515625 L 289 96.246094 L 206.710938 96.246094 Z M 206.710938 68.515625 " clip-rule="nonzero"/></clipPath><clipPath id="7f7e7cabcd"><path d="M 255 69 L 303.34375 69 L 303.34375 96 L 255 96 Z M 255 69 " clip-rule="nonzero"/></clipPath></defs><g fill="#000000" fill-opacity="1"><g transform="translate(89.047403, 135.404855)"><g><path d="M 16.347656 0 L 19.015625 0 L 19.015625 -37.238281 L 33.546875 -37.238281 L 33.546875 -39.734375 L 1.816406 -39.734375 L 1.816406 -37.238281 L 16.347656 -37.238281 Z M 16.347656 0 "/></g></g></g><g fill="#000000" fill-opacity="1"><g transform="translate(124.407554, 135.404855)"><g><path d="M 0.679688 0 L 3.691406 0 L 7.378906 -8.175781 L 32.582031 -8.175781 L 36.328125 0 L 39.28125 0 L 20.378906 -40.359375 L 19.582031 -40.359375 Z M 8.457031 -10.386719 L 19.8125 -35.195312 L 20.152344 -35.195312 L 31.5625 -10.386719 Z M 8.457031 -10.386719 "/></g></g></g><g fill="#000000" fill-opacity="1"><g transform="translate(164.365086, 135.404855)"><g><path d="M 4.542969 0 L 7.210938 0 L 7.210938 -12.488281 L 16.519531 -21.285156 L 16.972656 -21.285156 L 35.25 0 L 38.484375 0 L 18.789062 -23.273438 L 36.101562 -39.734375 L 32.753906 -39.734375 L 7.550781 -15.949219 L 7.210938 -15.949219 L 7.210938 -39.734375 L 4.542969 -39.734375 Z M 4.542969 0 "/></g></g></g><g fill="#000000" fill-opacity="1"><g transform="translate(155.416547, 195.401335)"><g><path d="M 1.757812 0 L 4.425781 0 L 11.636719 -32.46875 L 11.976562 -32.46875 L 23.785156 -5.507812 L 24.863281 -5.507812 L 36.613281 -32.46875 L 37.011719 -32.46875 L 44.21875 0 L 46.886719 0 L 38.203125 -40.359375 L 37.011719 -40.359375 L 24.523438 -11.523438 L 24.125 -11.523438 L 11.636719 -40.359375 L 10.445312 -40.359375 Z M 1.757812 0 "/></g></g></g><g fill="#000000" fill-opacity="1"><g transform="translate(71.860641, 262.418768)"><g><path d="M 4.542969 0 L 7.152344 0 L 7.152344 -16.972656 L 21.230469 -17.027344 L 32.015625 0 L 34.910156 0 L 23.953125 -17.199219 C 30.199219 -18.164062 34.570312 -22.59375 34.570312 -28.550781 C 34.570312 -35.308594 29.0625 -39.734375 21.457031 -39.734375 L 4.542969 -39.734375 Z M 7.152344 -19.1875 L 7.152344 -37.238281 L 21.117188 -37.238281 C 27.359375 -37.238281 31.902344 -33.773438 31.902344 -28.324219 C 31.902344 -22.875 27.359375 -19.1875 21.117188 -19.1875 Z M 7.152344 -19.1875 "/></g></g></g><g fill="#000000" fill-opacity="1"><g transform="translate(109.491105, 262.418768)"><g><path d="M 22.933594 0.679688 C 34.398438 0.679688 42.800781 -7.832031 42.800781 -19.8125 C 42.800781 -31.789062 34.398438 -40.359375 22.933594 -40.359375 C 11.523438 -40.359375 3.121094 -31.789062 3.121094 -19.8125 C 3.121094 -7.832031 11.523438 0.679688 22.933594 0.679688 Z M 22.933594 -1.816406 C 13 -1.816406 5.734375 -9.308594 5.734375 -19.8125 C 5.734375 -30.3125 13 -37.863281 22.933594 -37.863281 C 32.921875 -37.863281 40.1875 -30.3125 40.1875 -19.8125 C 40.1875 -9.308594 32.921875 -1.816406 22.933594 -1.816406 Z M 22.933594 -1.816406 "/></g></g></g><g fill="#000000" fill-opacity="1"><g transform="translate(155.408208, 262.418768)"><g><path d="M 1.757812 0 L 4.425781 0 L 11.636719 -32.46875 L 11.976562 -32.46875 L 23.785156 -5.507812 L 24.863281 -5.507812 L 36.613281 -32.46875 L 37.011719 -32.46875 L 44.21875 0 L 46.886719 0 L 38.203125 -40.359375 L 37.011719 -40.359375 L 24.523438 -11.523438 L 24.125 -11.523438 L 11.636719 -40.359375 L 10.445312 -40.359375 Z M 1.757812 0 "/></g></g></g><g clip-path="url(#88a7a07707)"><path fill="#baa4e6" d="M 292.492188 255.890625 L 294.265625 255.890625 C 294.429688 255.890625 294.5625 256.027344 294.5625 256.1875 C 294.5625 256.347656 294.429688 256.484375 294.265625 256.484375 L 236.960938 256.484375 C 236.800781 256.484375 236.667969 256.347656 236.667969 256.1875 C 236.667969 256.027344 236.800781 255.890625 236.960938 255.890625 L 239.171875 255.890625 L 239.171875 251.132812 C 238.933594 250.867188 238.8125 250.570312 238.800781 250.28125 C 238.78125 249.921875 238.917969 249.578125 239.167969 249.300781 C 239.179688 249.289062 239.199219 249.269531 239.210938 249.257812 C 239.210938 249.25 239.21875 249.242188 239.21875 249.242188 L 239.21875 246.0625 C 239.207031 246.042969 239.1875 246.023438 239.171875 246.003906 C 238.734375 245.476562 238.640625 244.941406 238.769531 244.425781 C 238.851562 244.089844 239.027344 243.773438 239.261719 243.480469 C 239.28125 243.453125 239.300781 243.425781 239.328125 243.402344 C 239.390625 243.332031 239.457031 243.253906 239.527344 243.1875 L 239.527344 241.371094 C 239.386719 241.121094 239.171875 240.683594 239.089844 240.128906 C 238.992188 239.511719 239.050781 238.757812 239.535156 237.976562 L 239.550781 237.953125 C 239.566406 237.925781 239.578125 237.90625 239.597656 237.886719 C 239.71875 237.695312 239.855469 237.496094 240.015625 237.289062 L 240.015625 234.15625 C 239.898438 233.90625 239.808594 233.65625 239.738281 233.402344 C 239.410156 232.226562 239.546875 231.097656 240.023438 230.027344 C 240.027344 229.996094 240.039062 229.972656 240.058594 229.945312 C 240.515625 228.960938 241.253906 228.03125 242.167969 227.167969 C 244.046875 225.390625 246.660156 223.898438 249.039062 222.789062 C 251.101562 221.828125 252.992188 221.160156 254.050781 220.855469 C 254.160156 220.824219 254.285156 220.851562 254.359375 220.941406 L 256.320312 223.125 C 256.347656 223.148438 256.367188 223.179688 256.378906 223.21875 L 258.996094 229.679688 C 259.128906 229.660156 259.226562 229.648438 259.285156 229.640625 C 259.414062 229.625 259.527344 229.695312 259.585938 229.804688 L 260.429688 231.464844 C 260.449219 231.511719 260.460938 231.554688 260.460938 231.601562 L 260.460938 233.023438 L 261.984375 237.589844 C 262.980469 237.550781 263.878906 237.539062 264.652344 237.550781 C 264.761719 237.550781 264.855469 237.617188 264.902344 237.699219 L 265.503906 238.777344 L 270.90625 238.777344 L 270.90625 237.292969 C 270.90625 237.132812 271.03125 237 271.195312 237 C 272.742188 236.980469 275.582031 237.0625 278.679688 237.40625 C 280.855469 237.644531 283.160156 238.003906 285.238281 238.539062 C 287.09375 239.015625 288.867188 239.621094 290.199219 240.597656 C 291.554688 241.597656 292.449219 242.96875 292.480469 244.949219 C 292.480469 244.960938 292.480469 244.964844 292.480469 244.980469 L 292.480469 246.90625 C 292.480469 246.917969 292.480469 246.925781 292.480469 246.929688 L 292.480469 255.890625 Z M 287.757812 240.527344 C 287.703125 240.488281 287.648438 240.46875 287.578125 240.46875 C 287.414062 240.46875 287.28125 240.605469 287.28125 240.765625 L 287.28125 242.164062 C 287.28125 242.261719 287.332031 242.363281 287.421875 242.414062 L 287.820312 242.652344 C 287.871094 242.691406 287.929688 242.710938 288 242.710938 C 288.160156 242.710938 288.296875 242.578125 288.296875 242.414062 L 288.296875 241.019531 C 288.296875 240.921875 288.246094 240.820312 288.15625 240.765625 Z M 283.210938 239.355469 C 283.191406 239.351562 283.167969 239.351562 283.140625 239.351562 C 282.980469 239.351562 282.847656 239.484375 282.847656 239.644531 L 282.847656 241.183594 C 282.847656 241.328125 282.949219 241.457031 283.089844 241.476562 L 283.957031 241.625 C 283.976562 241.628906 284.003906 241.628906 284.027344 241.628906 C 284.1875 241.628906 284.324219 241.496094 284.324219 241.332031 L 284.324219 239.792969 C 284.324219 239.652344 284.222656 239.523438 284.082031 239.503906 Z M 283.734375 240.046875 L 283.4375 239.992188 L 283.4375 240.933594 L 283.734375 240.984375 Z M 277.351562 238.261719 C 277.332031 238.261719 277.320312 238.253906 277.300781 238.253906 C 277.140625 238.253906 277.003906 238.390625 277.003906 238.550781 L 277.003906 240.347656 C 277.003906 240.496094 277.113281 240.625 277.265625 240.644531 L 278.28125 240.761719 C 278.300781 240.761719 278.316406 240.765625 278.335938 240.765625 C 278.496094 240.765625 278.628906 240.632812 278.628906 240.46875 L 278.628906 238.671875 C 278.628906 238.523438 278.519531 238.394531 278.367188 238.378906 Z M 278.039062 238.9375 L 277.601562 238.886719 L 277.601562 240.085938 L 278.039062 240.136719 Z M 243.285156 230.78125 C 243.210938 230.835938 243.152344 230.925781 243.152344 231.027344 L 243.152344 232.320312 C 243.152344 232.386719 243.171875 232.449219 243.210938 232.503906 C 243.304688 232.632812 243.492188 232.65625 243.621094 232.558594 L 244.128906 232.167969 C 244.207031 232.117188 244.261719 232.027344 244.261719 231.917969 L 244.261719 230.621094 C 244.261719 230.558594 244.246094 230.492188 244.207031 230.441406 C 244.109375 230.3125 243.921875 230.285156 243.792969 230.382812 Z M 248.25 227.882812 C 248.140625 227.929688 248.0625 228.03125 248.0625 228.160156 L 248.0625 229.757812 C 248.0625 229.804688 248.074219 229.847656 248.09375 229.894531 C 248.171875 230.035156 248.34375 230.09375 248.492188 230.015625 L 249.386719 229.550781 C 249.496094 229.507812 249.574219 229.402344 249.574219 229.273438 L 249.574219 227.679688 C 249.574219 227.632812 249.558594 227.585938 249.539062 227.542969 C 249.464844 227.402344 249.289062 227.34375 249.140625 227.421875 Z M 254.625 247.613281 C 254.605469 247.613281 254.585938 247.613281 254.566406 247.613281 C 254.136719 247.632812 253.710938 247.660156 253.289062 247.683594 C 253.273438 247.683594 253.261719 247.683594 253.253906 247.683594 C 252.324219 247.738281 251.402344 247.792969 250.503906 247.859375 C 250.496094 247.859375 250.484375 247.859375 250.480469 247.859375 C 249.828125 247.902344 249.1875 247.957031 248.539062 248.007812 C 248.054688 248.046875 247.585938 248.089844 247.128906 248.136719 C 246.417969 248.207031 245.695312 248.277344 244.984375 248.367188 C 244.28125 248.453125 243.558594 248.554688 242.855469 248.671875 C 242.179688 248.785156 241.460938 248.921875 240.804688 249.121094 C 240.335938 249.261719 239.984375 249.410156 239.757812 249.566406 L 239.757812 255.898438 L 240.78125 255.898438 L 240.78125 251.9375 C 240.78125 251.648438 240.894531 251.382812 241.089844 251.195312 C 241.09375 251.1875 241.101562 251.183594 241.109375 251.175781 C 241.292969 250.996094 241.550781 250.886719 241.828125 250.886719 C 242.117188 250.886719 242.378906 251.003906 242.566406 251.195312 C 242.753906 251.390625 242.875 251.648438 242.875 251.9375 L 242.875 255.898438 L 243.589844 255.898438 L 243.589844 251.460938 C 243.589844 251.152344 243.71875 250.859375 243.921875 250.65625 C 244.128906 250.449219 244.410156 250.320312 244.726562 250.320312 C 245.042969 250.320312 245.324219 250.449219 245.53125 250.65625 C 245.535156 250.660156 245.542969 250.667969 245.550781 250.675781 C 245.742188 250.878906 245.863281 251.15625 245.863281 251.460938 L 245.863281 255.898438 L 246.609375 255.898438 L 246.609375 251.390625 C 246.609375 250.984375 246.777344 250.617188 247.039062 250.351562 C 247.304688 250.085938 247.671875 249.921875 248.074219 249.921875 C 248.480469 249.921875 248.847656 250.085938 249.109375 250.351562 C 249.375 250.617188 249.539062 250.984375 249.539062 251.390625 L 249.539062 255.898438 L 250.195312 255.898438 L 250.195312 251.355469 C 250.195312 250.886719 250.390625 250.453125 250.699219 250.144531 C 251.003906 249.835938 251.4375 249.644531 251.90625 249.644531 C 252.375 249.644531 252.804688 249.835938 253.113281 250.144531 C 253.421875 250.453125 253.613281 250.886719 253.613281 251.355469 L 253.613281 255.898438 L 254.265625 255.898438 L 254.265625 251.59375 C 254.265625 251.058594 254.484375 250.570312 254.835938 250.214844 C 255.191406 249.863281 255.679688 249.644531 256.210938 249.644531 C 256.746094 249.644531 257.234375 249.863281 257.585938 250.214844 C 257.941406 250.570312 258.160156 251.058594 258.160156 251.59375 L 258.160156 255.898438 L 259.007812 255.898438 L 259.007812 251.589844 C 259.007812 251.027344 259.238281 250.511719 259.605469 250.144531 C 259.976562 249.773438 260.484375 249.546875 261.046875 249.546875 C 261.605469 249.546875 262.117188 249.777344 262.484375 250.144531 C 262.859375 250.519531 263.082031 251.027344 263.082031 251.589844 L 263.082031 255.898438 L 264.378906 255.898438 L 264.378906 251.589844 C 264.378906 251.027344 264.613281 250.511719 264.976562 250.144531 C 265.351562 249.773438 265.859375 249.546875 266.417969 249.546875 C 266.976562 249.546875 267.492188 249.777344 267.859375 250.144531 C 268.230469 250.519531 268.457031 251.027344 268.457031 251.589844 L 268.457031 255.898438 L 272.691406 255.898438 L 269.902344 250.539062 C 269.871094 250.492188 269.855469 250.433594 269.855469 250.378906 L 269.855469 247.226562 C 265.882812 247.226562 261.734375 247.332031 257.765625 247.480469 C 256.730469 247.511719 255.679688 247.554688 254.625 247.613281 Z M 242.238281 248.195312 L 242.238281 244.8125 C 242.238281 244.683594 242.1875 244.566406 242.105469 244.484375 C 242.097656 244.476562 242.097656 244.476562 242.089844 244.46875 C 242.007812 244.394531 241.898438 244.347656 241.769531 244.347656 C 241.640625 244.347656 241.527344 244.398438 241.441406 244.484375 C 241.359375 244.566406 241.308594 244.683594 241.308594 244.8125 L 241.308594 248.398438 C 241.589844 248.328125 241.90625 248.257812 242.238281 248.195312 Z M 240.710938 248.554688 L 240.710938 244.804688 C 240.710938 244.515625 240.832031 244.246094 241.019531 244.058594 C 241.210938 243.863281 241.472656 243.75 241.761719 243.75 C 242.046875 243.75 242.304688 243.859375 242.496094 244.046875 C 242.503906 244.050781 242.507812 244.058594 242.515625 244.066406 C 242.707031 244.257812 242.824219 244.523438 242.824219 244.820312 L 242.824219 248.097656 C 243.011719 248.066406 243.195312 248.03125 243.394531 248 L 243.394531 244.136719 C 243.394531 243.789062 243.539062 243.464844 243.769531 243.234375 C 244 243.003906 244.316406 242.859375 244.667969 242.859375 C 245.015625 242.859375 245.335938 243.003906 245.570312 243.234375 C 245.800781 243.464844 245.941406 243.78125 245.941406 244.136719 L 245.941406 247.664062 C 246.132812 247.644531 246.328125 247.621094 246.527344 247.601562 L 246.527344 243.625 C 246.527344 243.226562 246.6875 242.859375 246.957031 242.597656 C 247.21875 242.332031 247.585938 242.171875 247.984375 242.171875 C 248.382812 242.171875 248.75 242.332031 249.011719 242.597656 C 249.277344 242.859375 249.445312 243.226562 249.445312 243.625 L 249.445312 247.34375 C 249.6875 247.324219 249.933594 247.304688 250.183594 247.285156 L 250.183594 243.167969 C 250.183594 242.707031 250.375 242.28125 250.679688 241.972656 C 250.988281 241.664062 251.402344 241.476562 251.875 241.476562 C 252.34375 241.476562 252.761719 241.667969 253.070312 241.972656 C 253.378906 242.28125 253.5625 242.699219 253.5625 243.167969 L 253.5625 247.074219 C 253.808594 247.058594 254.050781 247.046875 254.296875 247.035156 L 254.296875 242.949219 C 254.296875 242.441406 254.503906 241.976562 254.835938 241.644531 C 255.171875 241.308594 255.632812 241.101562 256.140625 241.101562 C 256.648438 241.101562 257.113281 241.308594 257.445312 241.644531 C 257.78125 241.976562 257.984375 242.441406 257.984375 242.949219 L 257.984375 246.875 C 258.332031 246.859375 258.671875 246.847656 259.015625 246.835938 L 259.015625 242.691406 C 259.015625 242.140625 259.238281 241.636719 259.597656 241.277344 C 259.957031 240.914062 260.460938 240.691406 261.011719 240.691406 C 261.566406 240.691406 262.066406 240.914062 262.425781 241.277344 C 262.785156 241.636719 263.011719 242.140625 263.011719 242.691406 L 263.011719 246.710938 C 264.464844 246.679688 265.800781 246.65625 266.957031 246.640625 L 265.640625 242.996094 C 265.628906 242.984375 265.621094 242.96875 265.613281 242.957031 C 265.582031 242.90625 265.570312 242.847656 265.570312 242.789062 L 265.070312 241.398438 C 265.050781 241.359375 265.042969 241.320312 265.042969 241.277344 L 265.042969 239.136719 L 264.476562 238.125 C 263.699219 238.121094 262.792969 238.132812 261.804688 238.175781 C 261.796875 238.175781 261.789062 238.175781 261.785156 238.175781 C 260.660156 238.230469 259.414062 238.3125 258.109375 238.433594 C 258.09375 238.433594 258.074219 238.441406 258.0625 238.441406 C 255.933594 238.640625 253.632812 238.945312 251.390625 239.355469 C 250.800781 239.464844 250.207031 239.582031 249.617188 239.710938 C 248.660156 239.917969 247.722656 240.140625 246.828125 240.394531 C 246.808594 240.398438 246.796875 240.40625 246.777344 240.40625 C 246.238281 240.554688 245.714844 240.714844 245.207031 240.882812 C 245.1875 240.890625 245.167969 240.894531 245.15625 240.902344 C 244.875 241 244.589844 241.09375 244.320312 241.191406 C 244.300781 241.203125 244.28125 241.210938 244.257812 241.21875 C 243.800781 241.386719 243.359375 241.566406 242.941406 241.753906 C 242.921875 241.765625 242.902344 241.773438 242.875 241.777344 C 242.597656 241.902344 242.328125 242.035156 242.070312 242.164062 C 242.058594 242.175781 242.039062 242.183594 242.019531 242.191406 C 241.347656 242.542969 240.746094 242.925781 240.257812 243.332031 C 240.105469 243.460938 239.949219 243.601562 239.824219 243.75 L 239.824219 248.882812 C 240.058594 248.765625 240.363281 248.65625 240.710938 248.554688 Z M 245.34375 247.730469 L 245.34375 244.128906 C 245.34375 243.941406 245.265625 243.773438 245.144531 243.652344 C 245.023438 243.53125 244.855469 243.453125 244.667969 243.453125 C 244.480469 243.453125 244.316406 243.53125 244.191406 243.652344 C 244.070312 243.773438 243.992188 243.941406 243.992188 244.128906 L 243.992188 247.902344 C 244.425781 247.839844 244.875 247.78125 245.34375 247.730469 Z M 248.839844 247.390625 L 248.839844 243.625 C 248.839844 243.386719 248.742188 243.175781 248.582031 243.015625 C 248.429688 242.859375 248.210938 242.765625 247.972656 242.765625 C 247.734375 242.765625 247.523438 242.859375 247.363281 243.015625 C 247.207031 243.167969 247.109375 243.386719 247.109375 243.625 L 247.109375 247.542969 C 247.5625 247.5 248.015625 247.460938 248.484375 247.421875 C 248.609375 247.40625 248.722656 247.394531 248.839844 247.390625 Z M 252.960938 247.105469 L 252.960938 243.164062 C 252.960938 242.859375 252.835938 242.589844 252.636719 242.390625 C 252.4375 242.191406 252.164062 242.066406 251.867188 242.066406 C 251.566406 242.066406 251.296875 242.191406 251.097656 242.390625 C 250.898438 242.589844 250.773438 242.867188 250.773438 243.164062 L 250.773438 247.242188 C 251.488281 247.195312 252.21875 247.148438 252.960938 247.105469 Z M 257.382812 246.894531 L 257.382812 242.949219 C 257.382812 242.601562 257.238281 242.292969 257.015625 242.0625 C 256.789062 241.835938 256.476562 241.695312 256.128906 241.695312 C 255.78125 241.695312 255.472656 241.835938 255.242188 242.0625 C 255.015625 242.285156 254.875 242.601562 254.875 242.949219 L 254.875 247.003906 C 255.710938 246.964844 256.550781 246.925781 257.382812 246.894531 Z M 262.414062 246.730469 L 262.414062 242.691406 C 262.414062 242.304688 262.253906 241.953125 262.003906 241.695312 C 261.746094 241.4375 261.390625 241.28125 261.007812 241.28125 C 260.621094 241.28125 260.265625 241.441406 260.011719 241.695312 C 259.753906 241.953125 259.597656 242.304688 259.597656 242.691406 L 259.597656 246.808594 C 260.5625 246.78125 261.507812 246.757812 262.414062 246.730469 Z M 290.050781 251.472656 C 290.042969 251.472656 290.03125 251.464844 290.023438 251.464844 C 288.644531 251.15625 287.242188 250.929688 285.839844 250.75 C 285.417969 250.691406 284.988281 250.648438 284.554688 250.597656 C 284.550781 250.597656 284.542969 250.597656 284.53125 250.597656 C 283.984375 250.539062 283.445312 250.488281 282.917969 250.441406 C 282.902344 250.441406 282.890625 250.441406 282.882812 250.441406 C 282.539062 250.410156 282.183594 250.382812 281.835938 250.359375 C 280.980469 250.300781 280.183594 250.261719 279.464844 250.234375 L 279.464844 251.335938 L 279.59375 251.632812 C 279.664062 251.472656 279.761719 251.324219 279.882812 251.195312 C 280.128906 250.949219 280.460938 250.800781 280.828125 250.800781 C 281.195312 250.800781 281.527344 250.949219 281.773438 251.195312 C 282.015625 251.441406 282.164062 251.773438 282.164062 252.140625 L 282.164062 255.90625 L 282.652344 255.90625 L 282.652344 252.433594 C 282.652344 252.089844 282.792969 251.78125 283.011719 251.5625 C 283.238281 251.335938 283.546875 251.203125 283.878906 251.203125 C 284.222656 251.203125 284.53125 251.335938 284.75 251.5625 C 284.753906 251.570312 284.761719 251.574219 284.769531 251.582031 C 284.980469 251.800781 285.113281 252.105469 285.113281 252.433594 L 285.113281 255.90625 L 285.597656 255.90625 L 285.597656 252.289062 C 285.597656 252.03125 285.699219 251.800781 285.867188 251.632812 C 286.035156 251.464844 286.265625 251.363281 286.523438 251.363281 C 286.78125 251.363281 287.011719 251.464844 287.179688 251.632812 C 287.34375 251.800781 287.449219 252.03125 287.449219 252.289062 L 287.449219 255.90625 L 287.960938 255.90625 L 287.960938 252.515625 C 287.960938 252.296875 288.050781 252.097656 288.199219 251.949219 C 288.347656 251.800781 288.546875 251.71875 288.765625 251.71875 C 288.984375 251.71875 289.183594 251.808594 289.332031 251.949219 C 289.480469 252.097656 289.570312 252.296875 289.570312 252.515625 L 289.570312 255.90625 L 289.972656 255.90625 L 289.972656 252.902344 C 289.972656 252.695312 290.058594 252.507812 290.191406 252.378906 C 290.328125 252.246094 290.515625 252.160156 290.714844 252.160156 C 290.90625 252.160156 291.078125 252.238281 291.214844 252.363281 C 291.222656 252.367188 291.226562 252.375 291.234375 252.378906 C 291.367188 252.515625 291.453125 252.703125 291.453125 252.902344 L 291.453125 255.90625 L 291.902344 255.90625 L 291.902344 251.949219 C 291.800781 251.921875 291.703125 251.890625 291.613281 251.867188 C 291.097656 251.71875 290.570312 251.589844 290.050781 251.472656 Z M 289.808594 250.808594 L 289.808594 247.652344 C 289.808594 247.421875 289.902344 247.207031 290.058594 247.054688 C 290.210938 246.898438 290.421875 246.800781 290.65625 246.800781 C 290.886719 246.800781 291.097656 246.898438 291.253906 247.054688 C 291.40625 247.207031 291.503906 247.421875 291.503906 247.652344 L 291.503906 251.207031 C 291.585938 251.226562 291.671875 251.253906 291.765625 251.28125 L 291.902344 251.316406 L 291.902344 247.023438 C 291.285156 246.441406 290.507812 245.984375 289.632812 245.605469 C 288.707031 245.199219 287.667969 244.882812 286.59375 244.605469 C 284.871094 244.167969 282.980469 243.847656 281.144531 243.613281 C 278.925781 243.335938 276.785156 243.1875 275.089844 243.132812 L 276.398438 246.621094 L 276.925781 246.621094 L 276.925781 245.050781 C 276.925781 244.746094 277.046875 244.46875 277.253906 244.269531 C 277.453125 244.070312 277.730469 243.941406 278.039062 243.941406 C 278.339844 243.941406 278.617188 244.066406 278.824219 244.269531 C 279.023438 244.46875 279.152344 244.746094 279.152344 245.058594 L 279.152344 246.628906 L 279.203125 246.628906 C 279.363281 246.628906 279.496094 246.765625 279.496094 246.925781 L 279.496094 249.636719 C 279.621094 249.644531 279.75 249.644531 279.875 249.648438 L 279.875 245.386719 C 279.875 245.050781 280.011719 244.742188 280.238281 244.523438 C 280.457031 244.304688 280.761719 244.160156 281.097656 244.160156 C 281.433594 244.160156 281.742188 244.296875 281.960938 244.523438 C 282.175781 244.742188 282.320312 245.050781 282.320312 245.386719 L 282.320312 249.792969 C 282.433594 249.796875 282.550781 249.8125 282.667969 249.816406 L 282.667969 245.628906 C 282.667969 245.320312 282.792969 245.042969 282.992188 244.835938 C 283.199219 244.632812 283.476562 244.507812 283.785156 244.507812 C 284.09375 244.507812 284.371094 244.636719 284.574219 244.835938 C 284.78125 245.042969 284.902344 245.320312 284.902344 245.628906 L 284.902344 250.03125 C 285.023438 250.042969 285.148438 250.054688 285.269531 250.074219 L 285.269531 245.992188 C 285.269531 245.726562 285.378906 245.488281 285.550781 245.316406 C 285.726562 245.140625 285.964844 245.03125 286.226562 245.03125 C 286.492188 245.03125 286.726562 245.140625 286.902344 245.316406 C 287.074219 245.488281 287.183594 245.726562 287.183594 245.992188 L 287.183594 250.332031 C 287.304688 250.351562 287.429688 250.371094 287.550781 250.390625 L 287.550781 246.746094 C 287.550781 246.480469 287.660156 246.242188 287.832031 246.066406 C 288.007812 245.894531 288.246094 245.785156 288.507812 245.785156 C 288.773438 245.785156 289.007812 245.894531 289.183594 246.066406 C 289.355469 246.242188 289.464844 246.480469 289.464844 246.746094 L 289.464844 250.738281 C 289.5625 250.757812 289.683594 250.785156 289.808594 250.808594 Z M 290.90625 251.058594 L 290.90625 247.660156 C 290.90625 247.589844 290.878906 247.523438 290.828125 247.480469 C 290.785156 247.433594 290.71875 247.402344 290.648438 247.402344 C 290.578125 247.402344 290.515625 247.425781 290.46875 247.480469 C 290.421875 247.523438 290.398438 247.589844 290.398438 247.660156 L 290.398438 250.945312 C 290.570312 250.976562 290.738281 251.023438 290.90625 251.058594 Z M 288.847656 250.617188 L 288.847656 246.738281 C 288.847656 246.640625 288.808594 246.542969 288.738281 246.480469 C 288.675781 246.417969 288.585938 246.371094 288.484375 246.371094 C 288.386719 246.371094 288.289062 246.410156 288.226562 246.480469 C 288.160156 246.542969 288.117188 246.636719 288.117188 246.738281 L 288.117188 250.488281 C 288.367188 250.53125 288.605469 250.570312 288.847656 250.617188 Z M 286.566406 250.25 L 286.566406 245.996094 C 286.566406 245.894531 286.527344 245.804688 286.457031 245.738281 C 286.386719 245.675781 286.304688 245.628906 286.199219 245.628906 C 286.105469 245.628906 286.007812 245.667969 285.945312 245.738281 C 285.878906 245.808594 285.835938 245.894531 285.835938 245.996094 L 285.835938 250.152344 C 286.078125 250.179688 286.324219 250.210938 286.566406 250.25 Z M 284.285156 249.964844 L 284.285156 245.628906 C 284.285156 245.480469 284.226562 245.351562 284.132812 245.257812 C 284.035156 245.160156 283.90625 245.101562 283.757812 245.101562 C 283.609375 245.101562 283.480469 245.160156 283.386719 245.257812 C 283.289062 245.351562 283.230469 245.480469 283.230469 245.628906 L 283.230469 249.863281 C 283.578125 249.902344 283.933594 249.933594 284.285156 249.964844 Z M 281.703125 249.746094 L 281.703125 245.378906 C 281.703125 245.203125 281.632812 245.050781 281.515625 244.933594 C 281.398438 244.820312 281.246094 244.746094 281.070312 244.746094 C 280.898438 244.746094 280.746094 244.820312 280.628906 244.933594 C 280.511719 245.050781 280.441406 245.203125 280.441406 245.378906 L 280.441406 249.667969 C 280.847656 249.695312 281.265625 249.71875 281.703125 249.746094 Z M 290.855469 255.890625 L 290.855469 252.890625 C 290.855469 252.851562 290.835938 252.8125 290.808594 252.785156 L 290.804688 252.78125 C 290.777344 252.761719 290.746094 252.746094 290.707031 252.746094 C 290.667969 252.746094 290.628906 252.765625 290.605469 252.792969 C 290.578125 252.820312 290.558594 252.859375 290.558594 252.894531 L 290.558594 255.898438 L 290.855469 255.898438 Z M 240.3125 242.53125 L 240.3125 238.945312 C 240.3125 238.6875 240.421875 238.449219 240.585938 238.273438 C 240.761719 238.101562 240.992188 237.996094 241.253906 237.996094 C 241.511719 237.996094 241.75 238.105469 241.925781 238.273438 C 242.097656 238.449219 242.199219 238.679688 242.199219 238.945312 L 242.199219 241.429688 C 242.289062 241.386719 242.386719 241.339844 242.484375 241.296875 L 242.484375 237.589844 C 242.484375 237.3125 242.59375 237.070312 242.773438 236.890625 C 242.953125 236.707031 243.203125 236.597656 243.472656 236.597656 C 243.75 236.597656 243.992188 236.707031 244.171875 236.890625 C 244.355469 237.070312 244.464844 237.320312 244.464844 237.589844 L 244.464844 240.496094 C 244.566406 240.457031 244.667969 240.425781 244.769531 240.386719 L 244.769531 236.707031 C 244.769531 236.398438 244.894531 236.121094 245.097656 235.921875 C 245.296875 235.722656 245.582031 235.59375 245.882812 235.59375 C 246.191406 235.59375 246.46875 235.714844 246.667969 235.921875 C 246.867188 236.121094 246.996094 236.40625 246.996094 236.707031 L 246.996094 239.71875 C 247.128906 239.679688 247.257812 239.644531 247.394531 239.613281 L 247.394531 235.878906 C 247.394531 235.515625 247.542969 235.195312 247.78125 234.957031 C 248.015625 234.71875 248.339844 234.570312 248.699219 234.570312 C 249.058594 234.570312 249.378906 234.71875 249.617188 234.957031 C 249.855469 235.195312 250.003906 235.515625 250.003906 235.878906 L 250.003906 239.015625 C 250.191406 238.976562 250.375 238.9375 250.5625 238.90625 L 250.5625 235.203125 C 250.5625 234.769531 250.734375 234.375 251.023438 234.085938 C 251.308594 233.804688 251.699219 233.625 252.136719 233.625 C 252.566406 233.625 252.960938 233.796875 253.25 234.085938 C 253.53125 234.371094 253.710938 234.761719 253.710938 235.203125 L 253.710938 238.371094 C 253.949219 238.339844 254.1875 238.300781 254.425781 238.265625 L 254.425781 234.488281 C 254.425781 233.945312 254.644531 233.457031 254.996094 233.101562 C 255.351562 232.746094 255.839844 232.527344 256.378906 232.527344 C 256.917969 232.527344 257.40625 232.746094 257.761719 233.101562 C 258.113281 233.457031 258.332031 233.945312 258.332031 234.488281 L 258.332031 237.824219 C 259.394531 237.726562 260.414062 237.65625 261.355469 237.609375 L 259.875 233.171875 C 259.863281 233.132812 259.847656 233.09375 259.847656 233.054688 L 259.847656 231.652344 L 259.136719 230.242188 C 259.058594 230.253906 258.957031 230.265625 258.839844 230.285156 C 258.835938 230.285156 258.828125 230.285156 258.828125 230.285156 C 257.792969 230.433594 255.453125 230.816406 252.851562 231.433594 C 251.113281 231.851562 249.257812 232.378906 247.59375 233.023438 C 245.097656 233.996094 243.429688 234.945312 242.265625 235.839844 C 241.492188 236.4375 240.941406 237.003906 240.53125 237.539062 C 240.523438 237.550781 240.511719 237.566406 240.496094 237.578125 C 240.34375 237.777344 240.207031 237.972656 240.09375 238.15625 L 240.09375 242.671875 C 240.175781 242.628906 240.242188 242.582031 240.3125 242.53125 Z M 241.601562 241.734375 L 241.601562 238.945312 C 241.601562 238.847656 241.5625 238.757812 241.5 238.691406 C 241.4375 238.628906 241.347656 238.589844 241.25 238.589844 C 241.152344 238.589844 241.0625 238.628906 241 238.691406 C 240.933594 238.757812 240.894531 238.847656 240.894531 238.945312 L 240.894531 242.132812 C 241.128906 241.996094 241.359375 241.863281 241.601562 241.734375 Z M 288.972656 255.890625 L 288.972656 252.503906 C 288.972656 252.445312 288.945312 252.394531 288.90625 252.355469 C 288.867188 252.316406 288.816406 252.296875 288.757812 252.296875 C 288.703125 252.296875 288.648438 252.324219 288.609375 252.355469 C 288.574219 252.394531 288.554688 252.445312 288.554688 252.503906 L 288.554688 255.890625 Z M 286.855469 255.890625 L 286.855469 252.277344 C 286.855469 252.1875 286.816406 252.105469 286.761719 252.046875 C 286.703125 251.988281 286.617188 251.949219 286.527344 251.949219 C 286.4375 251.949219 286.355469 251.988281 286.296875 252.046875 C 286.238281 252.105469 286.199219 252.1875 286.199219 252.277344 L 286.199219 255.890625 Z M 284.53125 255.890625 L 284.53125 252.417969 C 284.53125 252.253906 284.464844 252.097656 284.355469 251.980469 C 284.351562 251.976562 284.351562 251.976562 284.34375 251.96875 C 284.226562 251.851562 284.066406 251.78125 283.894531 251.78125 C 283.71875 251.78125 283.558594 251.851562 283.445312 251.96875 C 283.328125 252.085938 283.257812 252.246094 283.257812 252.417969 L 283.257812 255.890625 Z M 281.578125 255.890625 L 281.578125 252.128906 C 281.578125 251.921875 281.496094 251.738281 281.363281 251.601562 C 281.226562 251.464844 281.039062 251.382812 280.835938 251.382812 C 280.628906 251.382812 280.441406 251.464844 280.308594 251.601562 C 280.171875 251.738281 280.089844 251.921875 280.089844 252.128906 L 280.089844 252.765625 L 281.425781 255.890625 Z M 242.289062 255.890625 L 242.289062 251.929688 C 242.289062 251.808594 242.238281 251.691406 242.15625 251.609375 C 242.070312 251.523438 241.960938 251.472656 241.835938 251.472656 C 241.710938 251.472656 241.609375 251.519531 241.527344 251.59375 C 241.519531 251.601562 241.519531 251.601562 241.511719 251.609375 C 241.429688 251.691406 241.378906 251.808594 241.378906 251.929688 L 241.378906 255.890625 Z M 274.855469 242.53125 C 276.613281 242.589844 278.875 242.738281 281.207031 243.027344 C 283.070312 243.257812 284.988281 243.589844 286.734375 244.03125 C 287.828125 244.308594 288.894531 244.636719 289.863281 245.0625 C 290.617188 245.390625 291.304688 245.777344 291.894531 246.25 L 291.894531 244.964844 C 291.894531 244.960938 291.894531 244.953125 291.894531 244.949219 C 291.863281 243.183594 291.074219 241.957031 289.851562 241.0625 C 288.597656 240.140625 286.890625 239.5625 285.089844 239.097656 C 283.03125 238.570312 280.757812 238.214844 278.617188 237.984375 C 275.726562 237.667969 273.070312 237.570312 271.488281 237.578125 L 271.488281 238.769531 L 274.394531 238.769531 C 274.554688 238.769531 274.691406 238.90625 274.691406 239.066406 L 274.691406 242.121094 Z M 245.273438 255.890625 L 245.273438 251.453125 C 245.273438 251.3125 245.214844 251.175781 245.125 251.078125 C 245.117188 251.074219 245.117188 251.074219 245.113281 251.066406 C 245.015625 250.96875 244.878906 250.90625 244.734375 250.90625 C 244.585938 250.90625 244.449219 250.96875 244.355469 251.066406 C 244.257812 251.164062 244.191406 251.296875 244.191406 251.445312 L 244.191406 255.886719 L 245.273438 255.886719 Z M 248.941406 255.890625 L 248.941406 251.382812 C 248.941406 251.144531 248.847656 250.925781 248.6875 250.765625 C 248.523438 250.601562 248.3125 250.507812 248.070312 250.507812 C 247.832031 250.507812 247.613281 250.601562 247.453125 250.765625 C 247.289062 250.925781 247.195312 251.144531 247.195312 251.382812 L 247.195312 255.890625 Z M 253.023438 255.890625 L 253.023438 251.351562 C 253.023438 251.039062 252.894531 250.765625 252.695312 250.558594 C 252.492188 250.351562 252.214844 250.230469 251.90625 250.230469 C 251.597656 250.230469 251.320312 250.359375 251.113281 250.558594 C 250.910156 250.765625 250.789062 251.039062 250.789062 251.351562 L 250.789062 255.890625 Z M 253.125 238.460938 L 253.125 235.203125 C 253.125 234.929688 253.015625 234.6875 252.835938 234.511719 C 252.65625 234.332031 252.414062 234.222656 252.148438 234.222656 C 251.878906 234.222656 251.636719 234.332031 251.460938 234.511719 C 251.28125 234.691406 251.171875 234.9375 251.171875 235.203125 L 251.171875 238.796875 C 251.816406 238.671875 252.472656 238.558594 253.125 238.460938 Z M 243.878906 240.714844 L 243.878906 237.597656 C 243.878906 237.488281 243.832031 237.386719 243.761719 237.3125 C 243.691406 237.242188 243.589844 237.199219 243.480469 237.199219 C 243.371094 237.199219 243.265625 237.242188 243.195312 237.3125 C 243.125 237.386719 243.082031 237.488281 243.082031 237.597656 L 243.082031 241.039062 C 243.332031 240.929688 243.601562 240.820312 243.878906 240.714844 Z M 246.417969 239.882812 L 246.417969 236.714844 C 246.417969 236.574219 246.359375 236.445312 246.261719 236.347656 C 246.167969 236.25 246.039062 236.195312 245.894531 236.195312 C 245.753906 236.195312 245.625 236.25 245.53125 236.347656 C 245.433594 236.445312 245.375 236.574219 245.375 236.714844 L 245.375 240.199219 C 245.714844 240.089844 246.0625 239.988281 246.417969 239.882812 Z M 249.425781 239.136719 L 249.425781 235.878906 C 249.425781 235.683594 249.347656 235.503906 249.21875 235.375 C 249.089844 235.246094 248.910156 235.167969 248.71875 235.167969 C 248.523438 235.167969 248.34375 235.246094 248.214844 235.375 C 248.085938 235.503906 248.011719 235.683594 248.011719 235.878906 L 248.011719 239.464844 C 248.46875 239.351562 248.941406 239.238281 249.425781 239.136719 Z M 257.753906 237.875 L 257.753906 234.488281 C 257.753906 234.113281 257.601562 233.769531 257.355469 233.519531 C 257.113281 233.273438 256.769531 233.121094 256.390625 233.121094 C 256.019531 233.121094 255.679688 233.273438 255.425781 233.519531 C 255.183594 233.765625 255.027344 234.105469 255.027344 234.488281 L 255.027344 238.191406 C 255.949219 238.066406 256.859375 237.964844 257.753906 237.875 Z M 257.574219 255.890625 L 257.574219 251.589844 C 257.574219 251.214844 257.421875 250.875 257.175781 250.628906 C 256.933594 250.382812 256.589844 250.230469 256.21875 250.230469 C 255.84375 250.230469 255.503906 250.382812 255.261719 250.628906 C 255.015625 250.875 254.863281 251.214844 254.863281 251.589844 L 254.863281 255.890625 Z M 262.503906 255.890625 L 262.503906 251.582031 C 262.503906 251.183594 262.34375 250.820312 262.078125 250.558594 C 261.816406 250.292969 261.457031 250.132812 261.058594 250.132812 C 260.660156 250.132812 260.300781 250.292969 260.035156 250.558594 C 259.773438 250.820312 259.613281 251.183594 259.613281 251.582031 L 259.613281 255.890625 Z M 267.882812 255.890625 L 267.882812 251.582031 C 267.882812 251.183594 267.722656 250.820312 267.460938 250.558594 C 267.195312 250.292969 266.835938 250.132812 266.4375 250.132812 C 266.039062 250.132812 265.679688 250.292969 265.414062 250.558594 C 265.152344 250.820312 264.992188 251.183594 264.992188 251.582031 L 264.992188 255.890625 Z M 278.539062 246.628906 L 278.539062 245.058594 C 278.539062 244.914062 278.480469 244.785156 278.386719 244.695312 C 278.296875 244.597656 278.160156 244.542969 278.027344 244.542969 C 277.882812 244.542969 277.753906 244.597656 277.664062 244.695312 C 277.574219 244.785156 277.519531 244.921875 277.519531 245.0625 L 277.519531 246.636719 L 278.539062 246.636719 Z M 270.46875 249.113281 L 278.878906 249.113281 L 278.878906 247.222656 L 270.46875 247.222656 Z M 278.878906 249.707031 L 270.46875 249.707031 L 270.46875 250.300781 L 270.710938 250.769531 C 270.808594 250.710938 270.910156 250.660156 271.019531 250.621094 C 271.226562 250.546875 271.445312 250.5 271.675781 250.5 C 272.183594 250.5 272.652344 250.707031 272.988281 251.046875 C 273.320312 251.382812 273.53125 251.851562 273.53125 252.363281 L 273.53125 255.890625 L 274.59375 255.890625 L 274.59375 252.363281 C 274.59375 251.851562 274.804688 251.382812 275.140625 251.046875 C 275.472656 250.710938 275.941406 250.5 276.449219 250.5 C 276.957031 250.5 277.429688 250.707031 277.761719 251.046875 C 278.097656 251.382812 278.308594 251.851562 278.308594 252.363281 L 278.308594 255.890625 L 280.789062 255.890625 L 278.917969 251.523438 C 278.898438 251.484375 278.886719 251.441406 278.886719 251.390625 L 278.886719 249.707031 Z M 265.628906 240.820312 L 274.105469 240.820312 L 274.105469 239.355469 L 265.628906 239.355469 Z M 274.105469 241.417969 L 265.691406 241.417969 L 266.039062 242.382812 C 266.257812 242.300781 266.488281 242.261719 266.707031 242.261719 C 267.035156 242.261719 267.363281 242.34375 267.644531 242.507812 C 267.933594 242.660156 268.179688 242.890625 268.359375 243.175781 C 268.539062 243.464844 268.648438 243.8125 268.648438 244.199219 L 268.648438 246.636719 C 269 246.636719 269.324219 246.628906 269.605469 246.628906 L 269.605469 244.199219 C 269.605469 243.664062 269.824219 243.183594 270.171875 242.828125 C 270.523438 242.472656 271.007812 242.261719 271.539062 242.261719 C 272.074219 242.261719 272.554688 242.480469 272.910156 242.828125 C 273.261719 243.183594 273.476562 243.664062 273.476562 244.199219 L 273.476562 246.628906 L 275.75 246.628906 L 274.125 242.292969 C 274.105469 242.253906 274.097656 242.214844 274.097656 242.171875 L 274.097656 241.417969 Z M 268.0625 246.636719 L 268.0625 244.195312 C 268.0625 243.921875 267.992188 243.679688 267.863281 243.484375 C 267.742188 243.285156 267.570312 243.132812 267.371094 243.019531 C 267.171875 242.910156 266.945312 242.855469 266.714844 242.855469 C 266.554688 242.855469 266.398438 242.878906 266.246094 242.9375 L 267.582031 246.636719 C 267.75 246.636719 267.910156 246.636719 268.0625 246.636719 Z M 272.941406 255.046875 L 272.941406 252.363281 C 272.941406 252.011719 272.800781 251.699219 272.570312 251.464844 C 272.335938 251.234375 272.023438 251.09375 271.675781 251.09375 C 271.515625 251.09375 271.367188 251.117188 271.230469 251.175781 C 271.148438 251.207031 271.066406 251.246094 270.988281 251.296875 Z M 277.710938 255.890625 L 277.710938 252.363281 C 277.710938 252.011719 277.570312 251.699219 277.339844 251.464844 C 277.105469 251.234375 276.792969 251.09375 276.445312 251.09375 C 276.097656 251.09375 275.78125 251.234375 275.550781 251.464844 C 275.320312 251.699219 275.179688 252.011719 275.179688 252.363281 L 275.179688 255.890625 Z M 272.898438 246.628906 L 272.898438 244.199219 C 272.898438 243.832031 272.75 243.492188 272.503906 243.246094 C 272.261719 243.003906 271.925781 242.855469 271.558594 242.855469 C 271.195312 242.855469 270.851562 243.007812 270.613281 243.246094 C 270.371094 243.492188 270.222656 243.828125 270.222656 244.199219 L 270.222656 246.628906 Z M 240.601562 236.574219 C 240.960938 236.1875 241.390625 235.789062 241.929688 235.375 C 243.132812 234.449219 244.855469 233.46875 247.40625 232.476562 C 249.089844 231.820312 250.972656 231.285156 252.742188 230.859375 C 255.09375 230.300781 257.234375 229.933594 258.402344 229.757812 L 255.863281 223.476562 L 254.046875 221.460938 C 252.980469 221.777344 251.210938 222.414062 249.285156 223.308594 C 246.949219 224.398438 244.386719 225.867188 242.566406 227.585938 C 241.710938 228.398438 241.019531 229.261719 240.601562 230.175781 Z M 240.601562 236.574219 " fill-opacity="1" fill-rule="evenodd"/></g><path fill="#baa4e6" d="M 290.011719 258.417969 C 290.171875 258.417969 290.308594 258.550781 290.308594 258.710938 C 290.308594 258.875 290.171875 259.007812 290.011719 259.007812 L 241.210938 259.007812 C 241.050781 259.007812 240.914062 258.875 240.914062 258.710938 C 240.914062 258.546875 241.050781 258.417969 241.210938 258.417969 Z M 290.011719 258.417969 " fill-opacity="1" fill-rule="evenodd"/><g clip-path="url(#261683d818)"><path fill="#baa4e6" d="M 283.875 261.40625 C 284.035156 261.40625 284.171875 261.539062 284.171875 261.703125 C 284.171875 261.863281 284.035156 261.996094 283.875 261.996094 L 247.355469 261.996094 C 247.195312 261.996094 247.058594 261.863281 247.058594 261.703125 C 247.058594 261.539062 247.195312 261.40625 247.355469 261.40625 Z M 283.875 261.40625 " fill-opacity="1" fill-rule="evenodd"/></g><g clip-path="url(#0b8837f9e1)"><path fill="#baa4e6" d="M 208.179688 95.980469 L 247.59375 70.5 C 247.59375 70.5 287.007812 95.980469 287.007812 95.980469 C 287.417969 96.242188 287.960938 96.128906 288.226562 95.71875 C 288.488281 95.3125 288.371094 94.765625 287.964844 94.503906 C 287.964844 94.503906 248.074219 68.714844 248.074219 68.714844 C 247.78125 68.527344 247.40625 68.527344 247.117188 68.714844 C 247.117188 68.714844 207.222656 94.503906 207.222656 94.503906 C 206.816406 94.765625 206.699219 95.3125 206.964844 95.71875 C 207.226562 96.128906 207.773438 96.242188 208.179688 95.980469 Z M 208.179688 95.980469 " fill-opacity="1" fill-rule="evenodd"/></g><g clip-path="url(#7f7e7cabcd)"><path fill="#baa4e6" d="M 257.339844 75.710938 L 264.589844 71.023438 C 264.589844 71.023438 301.851562 95.453125 301.851562 95.453125 C 302.257812 95.71875 302.804688 95.605469 303.070312 95.199219 C 303.335938 94.792969 303.222656 94.246094 302.816406 93.980469 C 302.816406 93.980469 265.074219 69.238281 265.074219 69.238281 C 264.785156 69.046875 264.40625 69.046875 264.113281 69.234375 C 264.113281 69.234375 260.90625 71.308594 256.382812 74.234375 C 255.972656 74.496094 255.855469 75.042969 256.121094 75.449219 C 256.386719 75.859375 256.929688 75.976562 257.339844 75.710938 Z M 257.339844 75.710938 " fill-opacity="1" fill-rule="evenodd"/></g><path fill="#baa4e6" d="M 229.589844 81.351562 L 229.589844 74.707031 C 229.589844 74.222656 229.195312 73.832031 228.710938 73.832031 L 221.378906 73.832031 C 220.890625 73.832031 220.5 74.222656 220.5 74.707031 L 220.5 86.402344 C 220.5 86.882812 220.890625 87.277344 221.378906 87.277344 C 221.859375 87.277344 222.253906 86.882812 222.253906 86.402344 L 222.253906 75.582031 C 222.253906 75.582031 227.832031 75.582031 227.832031 75.582031 L 227.832031 81.351562 C 227.832031 81.832031 228.226562 82.226562 228.710938 82.226562 C 229.195312 82.226562 229.589844 81.832031 229.589844 81.351562 Z M 229.589844 81.351562 " fill-opacity="1" fill-rule="evenodd"/><g fill="#000000" fill-opacity="1"><g transform="translate(194.515583, 262.762506)"><g><path d="M 11.34375 -2.515625 L 12.609375 -2.515625 C 13.953125 -2.515625 15.125 -2.976562 16.125 -3.90625 C 17.132812 -4.832031 18.019531 -5.96875 18.78125 -7.3125 C 19.539062 -8.65625 20.128906 -10.082031 20.546875 -11.59375 C 20.960938 -13.101562 21.171875 -14.535156 21.171875 -15.890625 L 21.171875 -150.765625 C 21.171875 -151.941406 20.960938 -153.285156 20.546875 -154.796875 C 20.128906 -156.304688 19.539062 -157.734375 18.78125 -159.078125 C 18.019531 -160.421875 17.132812 -161.554688 16.125 -162.484375 C 15.125 -163.410156 13.953125 -163.875 12.609375 -163.875 L 11.34375 -163.875 L 11.34375 -166.390625 L 108.40625 -166.390625 L 108.40625 -142.953125 L 105.890625 -142.953125 C 105.546875 -146.816406 104.03125 -150.21875 101.34375 -153.15625 C 98.65625 -156.09375 94.457031 -157.5625 88.75 -157.5625 L 38.0625 -157.5625 L 38.0625 -93.78125 L 79.921875 -93.78125 C 83.785156 -93.78125 87.019531 -94.957031 89.625 -97.3125 C 92.226562 -99.664062 93.53125 -102.441406 93.53125 -105.640625 L 96.046875 -105.640625 L 96.046875 -74.125 L 93.53125 -74.125 C 93.53125 -77.144531 92.269531 -79.75 89.75 -81.9375 C 87.226562 -84.125 83.953125 -85.21875 79.921875 -85.21875 L 38.0625 -85.21875 L 38.0625 -8.828125 L 93.28125 -8.828125 C 96.476562 -8.828125 99.25 -9.582031 101.59375 -11.09375 C 103.945312 -12.601562 105.921875 -14.410156 107.515625 -16.515625 C 109.117188 -18.617188 110.296875 -20.882812 111.046875 -23.3125 C 111.804688 -25.75 112.1875 -27.8125 112.1875 -29.5 L 114.703125 -29.5 L 114.703125 0 L 11.34375 0 Z M 11.34375 -2.515625 "/></g></g></g></svg>